<svg width="13" height="13" viewBox="0 0 13 13" fill="none" xmlns="http://www.w3.org/2000/svg">
<path d="M11.7894 7.58125C10.8078 7.85653 9.77051 7.86555 8.78421 7.60739C7.7979 7.34923 6.89808 6.83319 6.17716 6.11227C5.45624 5.39135 4.94021 4.49153 4.68204 3.50522C4.42388 2.51892 4.43291 1.48167 4.70818 0.5C3.74035 0.769383 2.85998 1.28764 2.15477 2.00315C1.44956 2.71865 0.944123 3.60644 0.6888 4.57808C0.433476 5.54972 0.437179 6.57129 0.699539 7.54106C0.961899 8.51082 1.47376 9.39492 2.18414 10.1053C2.89451 10.8157 3.77861 11.3275 4.74838 11.5899C5.71814 11.8523 6.73971 11.856 7.71135 11.6006C8.68299 11.3453 9.57078 10.8399 10.2863 10.1347C11.0018 9.42945 11.52 8.54909 11.7894 7.58125Z" stroke="black" stroke-linecap="round" stroke-linejoin="round"/>
</svg>
